<?xml version="1.0" standalone="no"?>
<!DOCTYPE svg PUBLIC "-//W3C//DTD SVG 20010904//EN"
 "http://www.w3.org/TR/2001/REC-SVG-20010904/DTD/svg10.dtd">
<svg version="1.0" xmlns="http://www.w3.org/2000/svg"
 width="502.000000pt" height="502.000000pt" viewBox="0 0 502.000000 502.000000"
 preserveAspectRatio="xMidYMid meet">
<metadata>
Created by potrace 1.11, written by Peter Selinger 2001-2013
</metadata>
<g transform="translate(0.000000,502.000000) scale(0.100000,-0.100000)"
fill="#000000" stroke="none">
<path d="M0 3890 l0 -220 180 0 180 0 0 -1155 0 -1155 -180 0 -180 0 0 -226 0
-225 683 3 682 4 100 27 c369 100 623 354 726 727 23 85 23 87 27 790 3 778 2
813 -54 980 -83 250 -260 452 -499 570 -198 97 -160 93 -962 97 l-703 4 0
-221z m1366 -241 c189 -57 320 -183 382 -364 l27 -80 3 -644 c2 -426 -1 -667
-8 -713 -15 -100 -43 -173 -96 -251 -56 -82 -104 -124 -192 -170 -119 -62
-148 -67 -424 -67 l-248 0 0 1155 0 1155 244 0 c219 0 251 -2 312 -21z"/>
<path d="M2570 3890 l0 -220 774 0 c748 0 776 -1 839 -20 115 -36 225 -127
278 -232 66 -129 65 -308 -2 -444 -36 -72 -132 -165 -209 -202 -101 -48 -166
-52 -766 -52 l-544 0 0 -905 0 -905 220 0 220 0 0 685 0 685 248 0 247 0 330
-685 330 -685 243 0 c155 0 242 4 242 10 0 6 -157 324 -349 708 l-349 699 71
34 c283 135 492 381 543 638 26 130 16 348 -21 461 -99 306 -319 523 -630 622
-70 22 -75 23 -892 26 l-823 3 0 -221z"/>
</g>
</svg>
